<svg width="288" height="92" viewBox="0 0 288 92" fill="none" xmlns="http://www.w3.org/2000/svg">
<path d="M21.152 90H0.672001V0.399994H16.288C27.552 0.399994 36.0427 2.49066 41.76 6.672C47.4773 10.768 50.336 16.5707 50.336 24.08C50.336 32.6133 46.752 38.8853 39.584 42.896C49.9947 46.8213 55.2 54.2027 55.2 65.04C55.2 72.72 52.384 78.8213 46.752 83.344C41.12 87.7813 32.5867 90 21.152 90ZM21.152 86.16C25.1627 86.16 28.832 85.8613 32.16 85.264C35.488 84.5813 38.6453 83.5147 41.632 82.064C44.704 80.528 47.0933 78.3093 48.8 75.408C50.5067 72.5067 51.36 69.0507 51.36 65.04C51.36 55.9093 46.9653 49.7227 38.176 46.48L30.496 43.664L37.664 39.568C43.552 36.3253 46.496 31.1627 46.496 24.08C46.496 10.8533 36.4267 4.24 16.288 4.24H4.512V86.16H21.152ZM105.517 52.752L122.925 90H118.701L100.781 51.6C100.952 51.5147 101.677 51.1733 102.957 50.576C104.322 49.8933 105.261 49.424 105.773 49.168C106.285 48.8267 107.138 48.272 108.333 47.504C109.528 46.736 110.424 46.0107 111.021 45.328C111.618 44.56 112.258 43.7067 112.941 42.768C113.709 41.744 114.264 40.6347 114.605 39.44C114.946 38.16 115.117 36.7947 115.117 35.344C115.117 29.968 112.557 26 107.437 23.44C102.317 20.88 95.9597 19.6 88.365 19.6H78.125V90H74.285V15.76H88.365C98.4343 15.76 106.029 17.5093 111.149 21.008C116.354 24.5067 118.957 29.2853 118.957 35.344C118.957 39.2693 117.634 42.768 114.989 45.84C112.344 48.8267 109.186 51.1307 105.517 52.752ZM140.285 15.76H144.125V90H140.285V15.76ZM187.994 14.224C198.575 14.224 206.085 16.5707 210.522 21.264L207.962 24.08C203.866 20.0693 197.381 18.064 188.506 18.064C175.194 18.064 168.538 23.3547 168.538 33.936C168.538 38.032 170.159 41.3173 173.402 43.792C176.645 46.1813 180.57 48.016 185.178 49.296C189.871 50.576 194.522 51.9413 199.13 53.392C203.823 54.7573 207.791 57.0187 211.034 60.176C214.277 63.248 215.898 67.3013 215.898 72.336C215.898 78.224 213.466 82.9173 208.602 86.416C203.738 89.9147 196.698 91.664 187.482 91.664C182.959 91.664 178.479 91.0667 174.042 89.872C169.69 88.6773 166.447 86.928 164.314 84.624L166.874 81.808C171.226 85.8187 177.925 87.824 186.97 87.824C195.247 87.824 201.477 86.288 205.658 83.216C209.925 80.144 212.058 76.56 212.058 72.464C212.058 68.1973 210.437 64.7413 207.194 62.096C203.951 59.4507 199.983 57.488 195.29 56.208C190.682 54.8427 186.031 53.4773 181.338 52.112C176.73 50.6613 172.805 48.4427 169.562 45.456C166.319 42.4693 164.698 38.544 164.698 33.68C164.698 27.1093 166.874 22.2453 171.226 19.088C175.663 15.8453 181.253 14.224 187.994 14.224ZM234.535 90V15.76H238.375V90H234.535ZM281.895 90L242.471 50.832L277.799 15.76H283.303L247.975 50.832L287.399 90H281.895Z" fill="white"/>
</svg>
